<?xml version="1.0" standalone="no"?>
<!DOCTYPE svg PUBLIC "-//W3C//DTD SVG 20010904//EN"
 "http://www.w3.org/TR/2001/REC-SVG-20010904/DTD/svg10.dtd">
<svg version="1.0" xmlns="http://www.w3.org/2000/svg"
 width="600.000000pt" height="600.000000pt" viewBox="0 0 600.000000 600.000000"
 preserveAspectRatio="xMidYMid meet">

<g transform="translate(0.000000,600.000000) scale(0.100000,-0.100000)"
fill="#000000" stroke="none">
<path d="M3048 5945 c-78 -29 -132 -88 -168 -184 -15 -37 -16 -51 -7 -51 6 0
13 -12 14 -27 7 -105 33 -220 65 -296 28 -65 30 -78 24 -141 -4 -38 -11 -75
-17 -83 -18 -20 -103 -42 -232 -58 -153 -19 -187 -29 -219 -62 -28 -30 -234
-347 -310 -478 -66 -113 -129 -251 -135 -295 -6 -43 5 -81 53 -193 67 -154
235 -429 333 -544 34 -40 39 -42 90 -43 l54 0 -6 -119 c-9 -154 18 -566 48
-756 3 -16 14 -88 25 -160 12 -71 34 -212 51 -313 28 -169 29 -188 18 -264
-30 -206 8 -578 110 -1069 25 -119 29 -152 20 -180 -6 -19 -14 -68 -19 -109
-5 -41 -15 -108 -24 -147 -37 -166 27 -243 200 -243 91 0 99 10 97 113 -1 47
-7 114 -14 149 -7 35 -13 122 -14 193 -1 72 -5 164 -10 206 -5 50 -1 170 10
345 18 281 16 525 -5 598 -9 29 -9 59 -1 115 6 42 14 193 17 336 3 143 9 298
13 345 6 79 7 72 15 -115 5 -110 6 -274 2 -365 -6 -145 -4 -174 13 -235 13
-51 20 -119 25 -250 8 -234 47 -597 81 -743 9 -39 13 -83 9 -111 -3 -28 0 -72
10 -112 11 -49 13 -76 5 -100 -5 -19 -16 -79 -24 -134 -28 -194 -22 -209 89
-203 49 2 88 12 128 30 92 43 109 103 64 236 -16 46 -25 94 -25 132 0 32 -5
84 -11 114 -9 46 -8 86 9 228 43 366 52 784 20 983 -13 86 -10 109 76 600 13
77 25 141 25 143 0 1 11 2 24 2 31 0 85 38 114 80 41 61 53 125 51 276 -1 126
2 155 36 309 65 298 86 440 87 575 3 378 -70 993 -135 1129 -18 40 -68 58
-235 85 -84 14 -172 34 -196 44 -40 18 -43 23 -54 77 -17 83 -15 140 7 183 24
48 38 117 46 222 4 47 12 88 18 92 8 5 8 19 -1 53 -40 150 -198 240 -334 190z
m141 -21 c30 -9 69 -30 92 -51 61 -55 106 -157 62 -138 -81 34 -104 38 -213
38 -70 -1 -136 -7 -170 -16 -30 -8 -56 -14 -58 -12 -2 2 6 23 18 47 38 75 93
121 165 139 44 10 47 10 104 -7z m82 -185 c45 -15 59 -35 59 -80 0 -21 5 -39
12 -41 18 -6 -6 -149 -37 -216 -28 -60 -31 -123 -12 -207 19 -80 60 -98 321
-140 121 -19 146 -30 169 -76 45 -94 107 -506 113 -764 3 -93 9 -186 14 -205
26 -95 8 -258 -75 -671 -50 -250 -53 -271 -44 -345 15 -135 -13 -246 -78 -305
-26 -25 -73 -47 -73 -35 0 3 16 31 36 62 42 66 56 130 30 140 -10 4 -25 -1
-38 -12 l-20 -19 6 75 c4 41 12 109 18 150 7 49 8 188 4 400 -3 179 -2 353 2
388 7 48 4 79 -10 133 -33 132 -78 514 -78 672 0 37 -4 67 -9 67 -17 0 -24
-108 -30 -455 l-6 -350 23 -52 c63 -141 100 -411 88 -643 -11 -236 -46 -517
-107 -876 -60 -353 -61 -360 -49 -439 31 -204 23 -638 -20 -1000 -17 -143 -18
-169 -6 -245 8 -47 12 -97 9 -111 -3 -15 7 -65 21 -112 36 -117 34 -151 -7
-192 -38 -38 -99 -59 -175 -59 -36 -1 -56 4 -63 14 -17 26 5 239 32 311 8 19
6 43 -6 90 -12 45 -15 83 -11 125 4 35 2 74 -4 89 -31 81 -77 479 -90 780 -5
123 -14 209 -24 245 -9 30 -16 82 -15 115 5 166 -1 589 -9 728 -9 143 -15 179
-26 166 -5 -6 -26 -480 -31 -714 -2 -115 -9 -243 -15 -283 -9 -55 -9 -80 0
-105 21 -57 23 -319 5 -627 -9 -162 -14 -315 -11 -340 4 -25 10 -70 15 -100 5
-30 5 -83 0 -117 -7 -46 -5 -79 6 -127 20 -87 24 -250 7 -268 -18 -18 -138
-15 -184 6 -70 30 -90 97 -63 211 10 39 21 104 25 145 5 41 13 91 18 110 7 27
-1 82 -34 250 -76 382 -98 556 -98 790 0 113 1 237 3 275 2 48 -12 156 -43
345 -78 474 -99 675 -99 965 -1 242 22 426 72 574 40 119 42 140 32 276 -12
150 -71 577 -82 589 -12 14 -56 -65 -156 -279 l-94 -200 27 -115 c34 -148 78
-289 116 -367 27 -58 31 -63 62 -63 l32 0 -11 -75 c-7 -42 -15 -79 -19 -82 -8
-9 -82 -7 -96 2 -20 12 -130 164 -195 269 -77 126 -175 317 -200 395 -23 70
-16 113 33 216 53 109 113 211 268 451 99 153 134 199 158 209 17 7 90 20 162
29 147 18 227 39 253 65 36 36 36 201 0 247 -30 37 -68 226 -50 248 5 6 11 27
13 46 3 32 7 36 48 47 58 15 247 16 291 2z m-621 -1290 c58 -405 59 -490 11
-619 -11 -30 -25 -74 -31 -97 -10 -38 -14 -43 -39 -43 -25 0 -32 7 -54 53 -32
69 -90 248 -117 367 l-21 95 85 187 c82 182 127 270 134 263 2 -1 16 -94 32
-206z m979 -376 c12 -67 25 -132 29 -145 5 -13 4 -77 -2 -142 l-11 -119 -18
69 c-9 38 -28 92 -40 119 -22 49 -22 55 -18 350 l5 300 17 -155 c9 -85 26
-210 38 -277z m71 -1260 c0 -23 -54 -123 -67 -123 -15 0 10 106 30 126 30 29
37 29 37 -3z"/>
</g>
</svg>
